<svg width="17" height="17" viewBox="0 0 17 17" fill="none" xmlns="http://www.w3.org/2000/svg">
<path d="M11.9556 6.73656L11.3607 6.14162C11.2508 6.03178 11.0733 6.03178 10.9641 6.14162L7.39325 9.71184L5.69572 8.00066C5.58528 7.89081 5.40834 7.89081 5.29791 8.00066L4.70297 8.59619C4.59312 8.70603 4.59312 8.88356 4.70297 8.99281L7.19256 11.5002C7.30241 11.6095 7.47994 11.6095 7.58919 11.5002L11.9556 7.13378C12.0661 7.02394 12.0661 6.84641 11.9556 6.73656ZM8.5 0.78125C4.23688 0.78125 0.78125 4.23688 0.78125 8.5C0.78125 12.7631 4.23688 16.2188 8.5 16.2188C12.7631 16.2188 16.2188 12.7631 16.2188 8.5C16.2188 4.23688 12.7631 0.78125 8.5 0.78125ZM8.5 14.4375C5.22131 14.4375 2.5625 11.7787 2.5625 8.5C2.5625 5.22072 5.22131 2.5625 8.5 2.5625C11.7793 2.5625 14.4375 5.22072 14.4375 8.5C14.4375 11.7787 11.7793 14.4375 8.5 14.4375Z" fill="white" fill-opacity="0.38"/>
</svg>
