<svg width="36" height="26" viewBox="0 0 36 25" fill="none" xmlns="http://www.w3.org/2000/svg">
<path fill-rule="evenodd" clip-rule="evenodd" d="M30.6111 22.3646C31.24 22.9675 31.24 23.945 30.6111 24.5479C29.9822 25.1507 28.9624 25.1507 28.3335 24.5479L21.4712 17.97C20.5121 18.5133 19.3933 18.825 18.1986 18.825C14.6407 18.825 11.7565 16.0604 11.7565 12.65C11.7565 11.5048 12.0817 10.4324 12.6484 9.5131L5.78607 2.93534C5.15713 2.3325 5.15713 1.355 5.78607 0.752163C6.41503 0.14933 7.43476 0.14933 8.06372 0.752163L14.926 7.32993C15.8851 6.78668 17.0039 6.475 18.1986 6.475C21.7564 6.475 24.6407 9.2397 24.6407 12.65C24.6407 13.7952 24.3155 14.8676 23.7488 15.7869L30.6111 22.3646ZM19.0328 15.633C18.7668 15.7011 18.4872 15.7375 18.1986 15.7375C16.4196 15.7375 14.9775 14.3552 14.9775 12.65C14.9775 12.3734 15.0155 12.1054 15.0866 11.8503L19.0328 15.633ZM17.3643 9.66701L21.3106 13.4497C21.3816 13.1946 21.4196 12.9266 21.4196 12.65C21.4196 10.9448 19.9776 9.5625 18.1986 9.5625C17.91 9.5625 17.6304 9.59893 17.3643 9.66701ZM24.2624 23.733C22.4322 24.5052 20.401 25 18.1986 25C13.6046 25 9.75487 22.8471 6.92187 20.5139C4.07858 18.1724 2.1055 15.5251 1.22986 14.2404C0.568237 13.2698 0.568237 12.0302 1.22986 11.0596C1.96891 9.9753 3.48973 7.92041 5.6557 5.89779L7.9335 8.08112C6.04796 9.8359 4.68858 11.6418 3.99377 12.65C4.81575 13.8427 6.56787 16.1519 9.02095 18.1721C11.5536 20.2578 14.6808 21.9125 18.1986 21.9125C19.4418 21.9125 20.6361 21.7059 21.7728 21.3466L24.2624 23.733ZM18.1986 3.3875C16.9556 3.3875 15.7612 3.59421 14.6246 3.95344L12.1349 1.56695C13.9651 0.794771 15.9964 0.299999 18.1986 0.299999C22.7926 0.299999 26.6424 2.45291 29.4755 4.78598C32.3187 7.1277 34.2918 9.77492 35.1674 11.0596C35.829 12.0302 35.829 13.2698 35.1674 14.2404C34.4284 15.3247 32.9075 17.3796 30.7415 19.4022L28.4638 17.2188C30.3494 15.4641 31.7088 13.6582 32.4036 12.65C31.5816 11.4573 29.8295 9.14816 27.3764 7.12785C24.8438 5.04209 21.7165 3.3875 18.1986 3.3875Z" fill="#617E9B"/>
</svg>
