<svg width="32" height="32" viewBox="0 0 32 32" fill="none" xmlns="http://www.w3.org/2000/svg">
<path fill-rule="evenodd" clip-rule="evenodd" d="M16.0001 31.8333C24.7445 31.8333 31.8334 24.7444 31.8334 16C31.8334 7.25545 24.7445 0.166626 16.0001 0.166626C7.25557 0.166626 0.166748 7.25545 0.166748 16C0.166748 24.7444 7.25557 31.8333 16.0001 31.8333ZM17.1876 11.25C17.1876 10.5941 16.6559 10.0625 16.0001 10.0625C15.3443 10.0625 14.8126 10.5941 14.8126 11.25V14.8125H11.2501C10.5942 14.8125 10.0626 15.3441 10.0626 16C10.0626 16.6558 10.5942 17.1875 11.2501 17.1875H14.8126V20.75C14.8126 21.4058 15.3443 21.9375 16.0001 21.9375C16.6559 21.9375 17.1876 21.4058 17.1876 20.75V17.1875H20.7501C21.4059 17.1875 21.9376 16.6558 21.9376 16C21.9376 15.3441 21.4059 14.8125 20.7501 14.8125H17.1876V11.25Z" fill="#212121"/>
</svg>
