<svg width="18" height="19" viewBox="0 0 18 19" fill="none" xmlns="http://www.w3.org/2000/svg">
<path d="M11.4899 9.42735L11.2128 8.97221C11.0335 9.08144 10.935 9.28572 10.9614 9.49405C10.9876 9.70228 11.1337 9.87577 11.3345 9.93704L11.4899 9.42735ZM6.51004 9.42735L6.66545 9.93704C6.86628 9.87577 7.01239 9.70228 7.03871 9.49405C7.06493 9.28572 6.96646 9.08144 6.7871 8.97221L6.51004 9.42735ZM13.2626 5.32823C13.2626 6.87128 12.443 8.22338 11.2128 8.97221L11.767 9.88248C13.3015 8.94834 14.3283 7.25844 14.3283 5.32823H13.2626ZM9.00003 1.06565C11.3542 1.06565 13.2626 2.97407 13.2626 5.32823H14.3283C14.3283 2.38553 11.9427 0 9.00003 0V1.06565ZM4.73741 5.32823C4.73741 2.97407 6.64583 1.06565 9.00003 1.06565V0C6.05729 0 3.67176 2.38553 3.67176 5.32823H4.73741ZM6.7871 8.97221C5.55697 8.22338 4.73741 6.87129 4.73741 5.32823H3.67176C3.67176 7.25844 4.69847 8.94834 6.233 9.88248L6.7871 8.97221ZM6.35465 8.91765C2.99067 9.94344 0.457344 12.8734 0.0117757 16.4538L1.06926 16.5854C1.46206 13.4291 3.69718 10.8421 6.66545 9.93704L6.35465 8.91765ZM0.0117757 16.4538C-0.105989 17.4001 0.677922 18.116 1.54047 18.116V17.0503C1.22594 17.0503 1.04166 16.8073 1.06926 16.5854L0.0117757 16.4538ZM1.54047 18.116H16.4596V17.0503H1.54047V18.116ZM16.4596 18.116C17.3221 18.116 18.106 17.4001 17.9882 16.4538L16.9307 16.5854C16.9583 16.8073 16.774 17.0503 16.4596 17.0503V18.116ZM17.9882 16.4538C17.5427 12.8734 15.0093 9.94344 11.6453 8.91765L11.3345 9.93704C14.3028 10.8421 16.5379 13.4291 16.9307 16.5854L17.9882 16.4538Z" fill="#617E9B"/>
</svg>
