<svg width="20" height="20" viewBox="0 0 20 20" fill="none" xmlns="http://www.w3.org/2000/svg">
<g opacity="0.9">
<path fill-rule="evenodd" clip-rule="evenodd" d="M10 6.875C8.27412 6.875 6.875 8.27411 6.875 10C6.875 11.7259 8.27412 13.125 10 13.125C11.7259 13.125 13.125 11.7259 13.125 10C13.125 8.27411 11.7259 6.875 10 6.875ZM8.125 10C8.125 8.9645 8.9645 8.125 10 8.125C11.0355 8.125 11.875 8.9645 11.875 10C11.875 11.0355 11.0355 11.875 10 11.875C8.9645 11.875 8.125 11.0355 8.125 10Z" fill="#617E9B"/>
<path fill-rule="evenodd" clip-rule="evenodd" d="M9.97884 1.04163C9.6085 1.04162 9.29925 1.04162 9.04542 1.05893C8.78117 1.07697 8.53159 1.11583 8.28959 1.21607C7.72808 1.44866 7.28194 1.89478 7.04935 2.45631C6.92827 2.74864 6.89548 3.05673 6.88295 3.39159C6.87289 3.66078 6.73704 3.88538 6.53654 4.00113C6.33606 4.11688 6.07363 4.12223 5.83547 3.99636C5.5392 3.83977 5.25599 3.71412 4.94228 3.67282C4.33969 3.59348 3.73027 3.75678 3.24808 4.12678C3.04028 4.28623 2.88181 4.48296 2.73408 4.70279C2.59215 4.91397 2.43756 5.18175 2.25237 5.50252L2.23133 5.53897C2.04613 5.85973 1.89153 6.12749 1.7796 6.35598C1.66309 6.59385 1.57195 6.82945 1.53776 7.08914C1.45843 7.69173 1.62173 8.30114 1.99172 8.78338C2.18432 9.03429 2.43469 9.21679 2.71839 9.39504C2.94654 9.53838 3.07315 9.76838 3.07314 9.99996C3.07313 10.2315 2.94652 10.4615 2.71839 10.6048C2.43466 10.783 2.18426 10.9655 1.99164 11.2165C1.62164 11.6987 1.45835 12.3081 1.53768 12.9107C1.57187 13.1704 1.66301 13.406 1.77952 13.6439C1.89144 13.8724 2.04604 14.1401 2.23124 14.4609L2.25229 14.4974C2.43748 14.8181 2.59207 15.0859 2.73399 15.297C2.88173 15.5169 3.04019 15.7136 3.24799 15.873C3.73019 16.243 4.33961 16.4064 4.94219 16.327C5.25589 16.2857 5.53909 16.1601 5.83534 16.0035C6.07353 15.8776 6.33599 15.883 6.5365 15.9988C6.73702 16.1145 6.87289 16.3391 6.88295 16.6084C6.89548 16.9432 6.92828 17.2513 7.04935 17.5436C7.28194 18.1051 7.72808 18.5513 8.28959 18.7839C8.53159 18.8841 8.78117 18.923 9.04542 18.941C9.29925 18.9583 9.6085 18.9583 9.97884 18.9583H10.0209C10.3913 18.9583 10.7005 18.9583 10.9544 18.941C11.2187 18.923 11.4683 18.8841 11.7103 18.7839C12.2718 18.5513 12.7179 18.1051 12.9505 17.5436C13.0716 17.2513 13.1043 16.9432 13.1168 16.6083C13.1269 16.3391 13.2628 16.1145 13.4633 15.9987C13.6638 15.883 13.9263 15.8776 14.1644 16.0035C14.4607 16.16 14.7438 16.2857 15.0576 16.327C15.6602 16.4063 16.2696 16.243 16.7518 15.873C16.9596 15.7135 17.118 15.5169 17.2658 15.297C17.4077 15.0859 17.5623 14.8181 17.7474 14.4974L17.7685 14.4609C17.9537 14.1401 18.1083 13.8723 18.2203 13.6438C18.3368 13.406 18.4278 13.1704 18.4621 12.9107C18.5414 12.308 18.3781 11.6986 18.0081 11.2165C17.8155 10.9655 17.5651 10.783 17.2814 10.6048C17.0533 10.4615 16.9267 10.2315 16.9267 9.99988C16.9267 9.76838 17.0533 9.53846 17.2813 9.39513C17.5652 9.21688 17.8156 9.03446 18.0082 8.78338C18.3782 8.3012 18.5415 7.69178 18.4622 7.08919C18.4279 6.82951 18.3368 6.59391 18.2203 6.35604C18.1084 6.12757 17.9538 5.85982 17.7686 5.53908L17.7476 5.50261C17.5623 5.18183 17.4078 4.91403 17.2658 4.70285C17.1181 4.48302 16.9597 4.28629 16.7518 4.12683C16.2697 3.75684 15.6603 3.59354 15.0576 3.67288C14.7439 3.71418 14.4608 3.83981 14.1645 3.99639C13.9263 4.12228 13.6638 4.11693 13.4633 4.00116C13.2628 3.8854 13.1269 3.66077 13.1168 3.39155C13.1043 3.05669 13.0716 2.74863 12.9505 2.45631C12.7179 1.89478 12.2718 1.44866 11.7103 1.21607C11.4683 1.11583 11.2187 1.07697 10.9544 1.05893C10.7005 1.04162 10.3913 1.04162 10.0209 1.04163H9.97884ZM8.76792 2.37092C8.83225 2.34428 8.92992 2.31973 9.1305 2.30603C9.33675 2.29197 9.60309 2.29163 9.99992 2.29163C10.3968 2.29163 10.6631 2.29197 10.8693 2.30603C11.0699 2.31973 11.1676 2.34428 11.2318 2.37092C11.4871 2.47664 11.6899 2.67943 11.7956 2.93467C11.829 3.01518 11.8566 3.14068 11.8678 3.43827C11.8924 4.09858 12.2333 4.73437 12.8383 5.08369C13.4433 5.43303 14.1644 5.41029 14.7486 5.10153C15.0118 4.96238 15.1344 4.92356 15.2208 4.91218C15.4947 4.87613 15.7717 4.95035 15.9908 5.11853C16.0461 5.16089 16.1162 5.2332 16.2283 5.40009C16.3437 5.57165 16.4771 5.80213 16.6755 6.14579C16.8739 6.48947 17.0068 6.72028 17.0978 6.9059C17.1862 7.08648 17.2138 7.18335 17.2228 7.25235C17.2589 7.52625 17.1847 7.80327 17.0165 8.02244C16.9634 8.09158 16.8686 8.17828 16.6163 8.33671C16.0569 8.68829 15.6768 9.30129 15.6767 9.99988C15.6767 10.6985 16.0568 11.3116 16.6163 11.6632C16.8685 11.8216 16.9633 11.9083 17.0164 11.9775C17.1846 12.1966 17.2588 12.4736 17.2228 12.7475C17.2137 12.8165 17.1861 12.9134 17.0977 13.094C17.0068 13.2795 16.8738 13.5104 16.6754 13.854C16.477 14.1977 16.3436 14.4282 16.2283 14.5998C16.1161 14.7666 16.046 14.839 15.9908 14.8813C15.7716 15.0495 15.4946 15.1237 15.2207 15.0877C15.1343 15.0763 15.0118 15.0375 14.7485 14.8984C14.1643 14.5895 13.4433 14.5669 12.8382 14.9162C12.2333 15.2655 11.8924 15.9013 11.8678 16.5616C11.8566 16.8592 11.829 16.9847 11.7956 17.0653C11.6899 17.3205 11.4871 17.5233 11.2318 17.629C11.1676 17.6556 11.0699 17.6802 10.8693 17.6939C10.6631 17.708 10.3968 17.7083 9.99992 17.7083C9.60309 17.7083 9.33675 17.708 9.1305 17.6939C8.92992 17.6802 8.83225 17.6556 8.76792 17.629C8.51275 17.5233 8.30993 17.3205 8.2042 17.0653C8.17085 16.9847 8.14321 16.8592 8.13208 16.5616C8.10739 15.9014 7.76656 15.2655 7.1615 14.9162C6.55645 14.5669 5.83544 14.5896 5.25124 14.8984C4.98796 15.0375 4.86544 15.0764 4.77904 15.0877C4.50514 15.1238 4.22813 15.0495 4.00895 14.8814C3.95374 14.839 3.88363 14.7667 3.77147 14.5998C3.65618 14.4283 3.52272 14.1978 3.3243 13.8541C3.12588 13.5105 2.99301 13.2796 2.90209 13.094C2.81364 12.9135 2.78607 12.8165 2.77699 12.7475C2.74093 12.4736 2.81515 12.1966 2.98334 11.9775C3.03639 11.9084 3.13126 11.8216 3.38342 11.6632C3.9429 11.3117 4.3231 10.6986 4.32314 10C4.32318 9.30129 3.94296 8.68821 3.38343 8.33663C3.13133 8.1782 3.03646 8.09152 2.98341 8.02238C2.81524 7.80321 2.74101 7.5262 2.77707 7.25229C2.78615 7.1833 2.81372 7.08642 2.90217 6.90585C2.99309 6.72022 3.12596 6.48941 3.32438 6.14573C3.5228 5.80207 3.65625 5.57159 3.77155 5.40003C3.88371 5.23315 3.95382 5.16083 4.00903 5.11848C4.22821 4.95029 4.50522 4.87607 4.77912 4.91213C4.86553 4.9235 4.98805 4.96232 5.25136 5.10149C5.83553 5.41025 6.55651 5.43298 7.16154 5.08367C7.76657 4.73436 8.10739 4.0986 8.13208 3.43831C8.14321 3.1407 8.17085 3.01518 8.2042 2.93467C8.30993 2.67943 8.51275 2.47664 8.76792 2.37092Z" fill="#617E9B"/>
</g>
</svg>
