<svg width="36" height="26" viewBox="0 0 36 26" fill="none" xmlns="http://www.w3.org/2000/svg">
<path fill-rule="evenodd" clip-rule="evenodd" d="M5.48853 13.4598C5.36123 13.2964 5.24153 13.1425 5.13513 13C6.17154 11.6273 7.31717 10.3406 8.56083 9.15247C11.2151 6.63117 14.5553 4.44997 18 4.44997C21.4447 4.44997 24.783 6.63117 27.4392 9.15247C28.6828 10.3407 29.8284 11.6274 30.8649 13C29.8279 14.3721 28.6823 15.6588 27.4392 16.8475C24.783 19.3688 21.4447 21.55 18 21.55C14.5553 21.55 11.217 19.3688 8.56083 16.8475C7.45704 15.7932 6.4303 14.661 5.48853 13.4598ZM34.7922 11.9626L33.2 13L34.7922 14.0374L34.7884 14.0431L34.7827 14.0507L34.7637 14.0811L34.6934 14.1837C34.3125 14.7367 33.9146 15.2778 33.5002 15.8063C32.445 17.1524 31.2944 18.4211 30.0574 19.6025C27.2112 22.3062 22.9514 25.35 18 25.35C13.0486 25.35 8.78883 22.3062 5.94263 19.6025C4.22046 17.9553 2.66739 16.14 1.30663 14.1837C1.28301 14.1496 1.25957 14.1154 1.23633 14.0811L1.21733 14.0507L1.21163 14.0431L1.20973 14.0393C1.20973 14.0393 1.20783 14.0374 2.80003 13L1.20783 11.9626L1.21163 11.9569L1.21733 11.9493L1.23633 11.9189C1.3406 11.7614 1.44829 11.6062 1.55933 11.4534C2.85974 9.63523 4.32791 7.94315 5.94453 6.39937C8.78693 3.68997 13.0486 0.648071 18 0.648071C22.9514 0.648071 27.2112 3.69187 30.0574 6.39557C31.7796 8.0427 33.3327 9.85801 34.6934 11.8144L34.7637 11.917L34.7827 11.9474L34.7884 11.955L34.7903 11.9588L34.7922 11.9626ZM33.2 13L34.7922 11.9626L35.4667 13L34.7922 14.0374L33.2 13ZM1.20783 11.9626L2.80003 13L1.20783 14.0374L0.533325 13L1.20783 11.9626ZM16.1 13C16.1 12.4961 16.3002 12.0128 16.6565 11.6565C17.0128 11.3001 17.4961 11.1 18 11.1C18.5039 11.1 18.9872 11.3001 19.3435 11.6565C19.6998 12.0128 19.9 12.4961 19.9 13C19.9 13.5039 19.6998 13.9872 19.3435 14.3435C18.9872 14.6998 18.5039 14.9 18 14.9C17.4961 14.9 17.0128 14.6998 16.6565 14.3435C16.3002 13.9872 16.1 13.5039 16.1 13ZM18 7.29997C16.4883 7.29997 15.0385 7.90051 13.9695 8.96946C12.9006 10.0384 12.3 11.4882 12.3 13C12.3 14.5117 12.9006 15.9615 13.9695 17.0305C15.0385 18.0994 16.4883 18.7 18 18.7C19.5118 18.7 20.9616 18.0994 22.0305 17.0305C23.0995 15.9615 23.7 14.5117 23.7 13C23.7 11.4882 23.0995 10.0384 22.0305 8.96946C20.9616 7.90051 19.5118 7.29997 18 7.29997Z" fill="#617E9B"/>
</svg>
